<svg width="47" height="38" viewBox="0 0 47 38" fill="none" xmlns="http://www.w3.org/2000/svg">
<g clip-path="url(#clip0_2860_47370)">
<path d="M21.8471 38C32.4682 38 41.0783 29.4934 41.0783 19C41.0783 8.50659 32.4682 0 21.8471 0C11.226 0 2.61591 8.50659 2.61591 19C2.61591 29.4934 11.226 38 21.8471 38Z" fill="#0B3D91"/>
<path d="M20.7116 3.86253C20.8307 3.86253 20.9272 3.76717 20.9272 3.64953C20.9272 3.53189 20.8307 3.43652 20.7116 3.43652C20.5926 3.43652 20.496 3.53189 20.496 3.64953C20.496 3.76717 20.5926 3.86253 20.7116 3.86253Z" fill="white"/>
<path d="M22.9251 4.14671C23.0441 4.14671 23.1407 4.05135 23.1407 3.93371C23.1407 3.81607 23.0441 3.7207 22.9251 3.7207C22.806 3.7207 22.7095 3.81607 22.7095 3.93371C22.7095 4.05135 22.806 4.14671 22.9251 4.14671Z" fill="white"/>
<path d="M25.8285 8.00902C25.9475 8.00902 26.044 7.91365 26.044 7.79601C26.044 7.67837 25.9475 7.58301 25.8285 7.58301C25.7094 7.58301 25.6129 7.67837 25.6129 7.79601C25.6129 7.91365 25.7094 8.00902 25.8285 8.00902Z" fill="white"/>
<path d="M9.90304 27.8899C10.0221 27.8899 10.1186 27.7945 10.1186 27.6769C10.1186 27.5592 10.0221 27.4639 9.90304 27.4639C9.78397 27.4639 9.68744 27.5592 9.68744 27.6769C9.68744 27.7945 9.78397 27.8899 9.90304 27.8899Z" fill="white"/>
<path d="M10.4636 29.594C10.5827 29.594 10.6792 29.4986 10.6792 29.381C10.6792 29.2633 10.5827 29.168 10.4636 29.168C10.3445 29.168 10.248 29.2633 10.248 29.381C10.248 29.4986 10.3445 29.594 10.4636 29.594Z" fill="white"/>
<path d="M7.79021 28.0934C7.88018 28.0934 7.95311 28.0213 7.95311 27.9324C7.95311 27.8435 7.88018 27.7715 7.79021 27.7715C7.70025 27.7715 7.62732 27.8435 7.62732 27.9324C7.62732 28.0213 7.70025 28.0934 7.79021 28.0934Z" fill="white"/>
<path d="M16.5578 31.44C16.6478 31.44 16.7207 31.368 16.7207 31.2791C16.7207 31.1902 16.6478 31.1182 16.5578 31.1182C16.4678 31.1182 16.3949 31.1902 16.3949 31.2791C16.3949 31.368 16.4678 31.44 16.5578 31.44Z" fill="white"/>
<path d="M30.308 28.6187C30.398 28.6187 30.4709 28.5467 30.4709 28.4578C30.4709 28.3689 30.398 28.2969 30.308 28.2969C30.2181 28.2969 30.1451 28.3689 30.1451 28.4578C30.1451 28.5467 30.2181 28.6187 30.308 28.6187Z" fill="white"/>
<path d="M34.3038 24.3297C34.3937 24.3297 34.4667 24.2576 34.4667 24.1687C34.4667 24.0799 34.3937 24.0078 34.3038 24.0078C34.2138 24.0078 34.1409 24.0799 34.1409 24.1687C34.1409 24.2576 34.2138 24.3297 34.3038 24.3297Z" fill="white"/>
<path d="M14.7181 9.20176C14.808 9.20176 14.881 9.1297 14.881 9.04082C14.881 8.95194 14.808 8.87988 14.7181 8.87988C14.6281 8.87988 14.5552 8.95194 14.5552 9.04082C14.5552 9.1297 14.6281 9.20176 14.7181 9.20176Z" fill="white"/>
<path d="M19.1162 6.01133C19.2062 6.01133 19.2791 5.93927 19.2791 5.85039C19.2791 5.76151 19.2062 5.68945 19.1162 5.68945C19.0262 5.68945 18.9533 5.76151 18.9533 5.85039C18.9533 5.93927 19.0262 6.01133 19.1162 6.01133Z" fill="white"/>
<path d="M18.6371 5.6998C18.727 5.6998 18.8 5.62775 18.8 5.53887C18.8 5.44998 18.727 5.37793 18.6371 5.37793C18.5471 5.37793 18.4742 5.44998 18.4742 5.53887C18.4742 5.62775 18.5471 5.6998 18.6371 5.6998Z" fill="white"/>
<path d="M18.2059 5.3873C18.2959 5.3873 18.3688 5.31525 18.3688 5.22637C18.3688 5.13748 18.2959 5.06543 18.2059 5.06543C18.116 5.06543 18.043 5.13748 18.043 5.22637C18.043 5.31525 18.116 5.3873 18.2059 5.3873Z" fill="white"/>
<path d="M15.408 10.026C15.4979 10.026 15.5708 9.95392 15.5708 9.86504C15.5708 9.77616 15.4979 9.7041 15.408 9.7041C15.318 9.7041 15.2451 9.77616 15.2451 9.86504C15.2451 9.95392 15.318 10.026 15.408 10.026Z" fill="white"/>
<path d="M21.8854 1.72324C21.9754 1.72324 22.0483 1.65119 22.0483 1.5623C22.0483 1.47342 21.9754 1.40137 21.8854 1.40137C21.7955 1.40137 21.7225 1.47342 21.7225 1.5623C21.7225 1.65119 21.7955 1.72324 21.8854 1.72324Z" fill="white"/>
<path d="M22.949 6.32383C23.039 6.32383 23.1119 6.25177 23.1119 6.16289C23.1119 6.07401 23.039 6.00195 22.949 6.00195C22.8591 6.00195 22.7861 6.07401 22.7861 6.16289C22.7861 6.25177 22.8591 6.32383 22.949 6.32383Z" fill="white"/>
<path d="M21.2721 5.42441C21.3621 5.42441 21.435 5.35236 21.435 5.26348C21.435 5.17459 21.3621 5.10254 21.2721 5.10254C21.1822 5.10254 21.1093 5.17459 21.1093 5.26348C21.1093 5.35236 21.1822 5.42441 21.2721 5.42441Z" fill="white"/>
<path d="M18.3976 6.64609C18.4875 6.64609 18.5605 6.57404 18.5605 6.48516C18.5605 6.39627 18.4875 6.32422 18.3976 6.32422C18.3076 6.32422 18.2347 6.39627 18.2347 6.48516C18.2347 6.57404 18.3076 6.64609 18.3976 6.64609Z" fill="white"/>
<path d="M31.0746 32.8316C31.1646 32.8316 31.2375 32.7596 31.2375 32.6707C31.2375 32.5818 31.1646 32.5098 31.0746 32.5098C30.9847 32.5098 30.9117 32.5818 30.9117 32.6707C30.9117 32.7596 30.9847 32.8316 31.0746 32.8316Z" fill="white"/>
<path d="M9.63 28.9166C9.71996 28.9166 9.79289 28.8445 9.79289 28.7557C9.79289 28.6668 9.71996 28.5947 9.63 28.5947C9.54003 28.5947 9.4671 28.6668 9.4671 28.7557C9.4671 28.8445 9.54003 28.9166 9.63 28.9166Z" fill="white"/>
<path d="M20.8697 30.9762C20.9597 30.9762 21.0326 30.9041 21.0326 30.8152C21.0326 30.7263 20.9597 30.6543 20.8697 30.6543C20.7798 30.6543 20.7068 30.7263 20.7068 30.8152C20.7068 30.9041 20.7798 30.9762 20.8697 30.9762Z" fill="white"/>
<path d="M12.9741 28.7887C13.0641 28.7887 13.137 28.7166 13.137 28.6277C13.137 28.5389 13.0641 28.4668 12.9741 28.4668C12.8841 28.4668 12.8112 28.5389 12.8112 28.6277C12.8112 28.7166 12.8841 28.7887 12.9741 28.7887Z" fill="white"/>
<path d="M14.3731 31.0426C14.4631 31.0426 14.536 30.9705 14.536 30.8816C14.536 30.7928 14.4631 30.7207 14.3731 30.7207C14.2831 30.7207 14.2102 30.7928 14.2102 30.8816C14.2102 30.9705 14.2831 31.0426 14.3731 31.0426Z" fill="white"/>
<path d="M24.6642 29.6217C24.7542 29.6217 24.8271 29.5496 24.8271 29.4607C24.8271 29.3719 24.7542 29.2998 24.6642 29.2998C24.5743 29.2998 24.5013 29.3719 24.5013 29.4607C24.5013 29.5496 24.5743 29.6217 24.6642 29.6217Z" fill="white"/>
<path d="M30.3368 26.4605C30.4267 26.4605 30.4997 26.3885 30.4997 26.2996C30.4997 26.2107 30.4267 26.1387 30.3368 26.1387C30.2468 26.1387 30.1739 26.2107 30.1739 26.2996C30.1739 26.3885 30.2468 26.4605 30.3368 26.4605Z" fill="white"/>
<path d="M34.6392 28.401C34.7291 28.401 34.802 28.3289 34.802 28.24C34.802 28.1512 34.7291 28.0791 34.6392 28.0791C34.5492 28.0791 34.4763 28.1512 34.4763 28.24C34.4763 28.3289 34.5492 28.401 34.6392 28.401Z" fill="white"/>
<path d="M36.1052 29.3287C36.1952 29.3287 36.2681 29.2567 36.2681 29.1678C36.2681 29.0789 36.1952 29.0068 36.1052 29.0068C36.0153 29.0068 35.9423 29.0789 35.9423 29.1678C35.9423 29.2567 36.0153 29.3287 36.1052 29.3287Z" fill="white"/>
<path d="M36.3448 26.8014C36.4347 26.8014 36.5077 26.7293 36.5077 26.6404C36.5077 26.5515 36.4347 26.4795 36.3448 26.4795C36.2548 26.4795 36.1819 26.5515 36.1819 26.6404C36.1819 26.7293 36.2548 26.8014 36.3448 26.8014Z" fill="white"/>
<path d="M14.9576 23.2223C15.0475 23.2223 15.1205 23.1502 15.1205 23.0613C15.1205 22.9724 15.0475 22.9004 14.9576 22.9004C14.8676 22.9004 14.7947 22.9724 14.7947 23.0613C14.7947 23.1502 14.8676 23.2223 14.9576 23.2223Z" fill="white"/>
<path d="M15.0199 26.9387C15.1389 26.9387 15.2355 26.8433 15.2355 26.7257C15.2355 26.6081 15.1389 26.5127 15.0199 26.5127C14.9008 26.5127 14.8043 26.6081 14.8043 26.7257C14.8043 26.8433 14.9008 26.9387 15.0199 26.9387Z" fill="white"/>
<path d="M16.3134 29.636C16.4325 29.636 16.529 29.5406 16.529 29.423C16.529 29.3053 16.4325 29.21 16.3134 29.21C16.1944 29.21 16.0978 29.3053 16.0978 29.423C16.0978 29.5406 16.1944 29.636 16.3134 29.636Z" fill="white"/>
<path d="M31.8076 26.8244C31.9267 26.8244 32.0232 26.7291 32.0232 26.6114C32.0232 26.4938 31.9267 26.3984 31.8076 26.3984C31.6886 26.3984 31.592 26.4938 31.592 26.6114C31.592 26.7291 31.6886 26.8244 31.8076 26.8244Z" fill="white"/>
<path d="M37.3844 26.5119C37.5035 26.5119 37.6 26.4166 37.6 26.2989C37.6 26.1813 37.5035 26.0859 37.3844 26.0859C37.2653 26.0859 37.1688 26.1813 37.1688 26.2989C37.1688 26.4166 37.2653 26.5119 37.3844 26.5119Z" fill="white"/>
<path d="M34.6248 25.3479C34.7438 25.3479 34.8404 25.2525 34.8404 25.1349C34.8404 25.0172 34.7438 24.9219 34.6248 24.9219C34.5057 24.9219 34.4092 25.0172 34.4092 25.1349C34.4092 25.2525 34.5057 25.3479 34.6248 25.3479Z" fill="white"/>
<path d="M31.8076 25.4612C31.9267 25.4612 32.0232 25.3658 32.0232 25.2482C32.0232 25.1305 31.9267 25.0352 31.8076 25.0352C31.6886 25.0352 31.592 25.1305 31.592 25.2482C31.592 25.3658 31.6886 25.4612 31.8076 25.4612Z" fill="white"/>
<path d="M25.9961 3.51675L26.5327 3.46468L25.9961 3.43628C25.9817 3.33214 25.8955 3.25167 25.7901 3.24221L25.7374 2.7168L25.7086 3.24694C25.6128 3.27061 25.5362 3.34634 25.5266 3.44575L24.9804 3.49308L25.5314 3.52148C25.5505 3.61142 25.6272 3.68242 25.7182 3.70135L25.7661 4.2457L25.7949 3.70135C25.8955 3.68715 25.9722 3.61142 25.9913 3.51201L25.9961 3.51675Z" fill="white"/>
<path d="M16.9506 9.41518L17.4872 9.36312L16.9506 9.33472C16.9363 9.23058 16.85 9.15011 16.7446 9.14064L16.6919 8.61523L16.6632 9.14538C16.5674 9.16905 16.4907 9.24478 16.4811 9.34418L15.9349 9.39152L16.4859 9.41992C16.5051 9.50985 16.5817 9.58085 16.6728 9.59979L16.7207 10.1441L16.7494 9.59979C16.85 9.58559 16.9267 9.50985 16.9458 9.41045L16.9506 9.41518Z" fill="white"/>
<path d="M36.9915 25.0021L37.5281 24.95L36.9915 24.9216C36.9772 24.8175 36.8909 24.7418 36.7855 24.7276L36.7328 24.2021L36.7041 24.7323C36.6082 24.7512 36.5316 24.8317 36.522 24.9311L35.9758 24.9784L36.5268 25.0068C36.546 25.0968 36.6226 25.1678 36.7136 25.1867L36.7616 25.731L36.7903 25.1867C36.8909 25.1725 36.9676 25.0968 36.9867 24.9974L36.9915 25.0021Z" fill="white"/>
<path d="M15.1397 33.1583L15.6763 33.1063L15.1397 33.0779C15.1253 32.9737 15.039 32.8933 14.9336 32.8838L14.8809 32.3584L14.8522 32.8885C14.7564 32.9075 14.6797 32.9879 14.6701 33.0873L14.124 33.1347L14.6749 33.1631C14.6941 33.253 14.7708 33.3288 14.8618 33.343L14.9097 33.8873L14.9384 33.343C15.039 33.3288 15.1157 33.253 15.1349 33.1536L15.1397 33.1583Z" fill="white"/>
<path d="M35.2907 29.1818L35.8273 29.1297L35.2907 29.1013C35.2764 28.9972 35.1901 28.9167 35.0847 28.9072L35.032 28.3818L35.0033 28.912C34.9074 28.9309 34.8308 29.0114 34.8212 29.1108L34.275 29.1581L34.826 29.1865C34.8452 29.2765 34.9218 29.3475 35.0128 29.3664L35.0608 29.9107L35.0895 29.3664C35.1901 29.3522 35.2668 29.2765 35.2859 29.1771L35.2907 29.1818Z" fill="white"/>
<path d="M26.4082 14.4468C24.1707 15.3036 21.9908 16.0704 20.1511 16.6384C16.4093 17.7934 6.18043 20.9269 0 24.8746L0.517431 25.0734C4.28318 22.9717 6.7314 22.3138 9.08379 21.5801C11.6422 20.7849 19.9115 18.8726 23.6581 17.8312C24.9229 17.481 26.4034 17.0171 27.9748 16.4585C27.6107 15.9568 27.2226 15.4503 26.8202 14.9486C26.686 14.7782 26.5471 14.6125 26.4082 14.4468ZM29.139 18.1673C28.5977 18.527 28.1425 18.8158 27.8263 19.0004C25.9865 20.0512 17.0177 26.1005 14.9768 27.4922C12.9358 28.8838 7.27278 34.1663 5.6055 35.6999L5.54801 36.3247C10.9235 31.5534 12.61 30.3748 14.7468 28.7702C17.3914 26.7821 22.8628 23.1043 24.7217 21.9256C26.4992 20.7991 28.1042 19.7625 29.5415 18.8158C29.5175 18.7779 29.4936 18.74 29.4696 18.6974C29.3594 18.5223 29.2492 18.3472 29.139 18.1673ZM37.5425 9.40098C34.9218 10.9157 30.7967 12.7475 26.7914 14.3001C26.8873 14.4137 26.9831 14.532 27.0789 14.6504C27.5245 15.2089 27.9461 15.7675 28.3437 16.3307C31.4914 15.1852 34.9458 13.6469 37.6862 11.7866C36.3831 13.0079 32.0664 16.1935 29.4313 17.9732C29.5654 18.191 29.6996 18.4087 29.8242 18.6264C33.8103 15.9899 36.4933 14.0492 38.0551 12.7523C40.2111 10.963 45.1267 6.95853 46.9952 1.59082C43.7181 5.70891 39.8422 8.06616 37.5377 9.40098H37.5425Z" fill="#FC3D21"/>
<path d="M19.3749 23.7054C18.9533 23.18 18.364 22.47 17.9232 21.9256C17.3339 21.1919 16.7878 20.4535 16.2895 19.7151C16.1266 19.753 15.9637 19.7956 15.8008 19.8382C16.4045 20.7659 17.0704 21.6937 17.8035 22.6025C18.3353 23.2652 18.8192 23.8001 19.0683 24.1314C19.1162 24.1977 19.2168 24.3491 19.351 24.5432C19.5043 24.4391 19.6624 24.3349 19.8205 24.2261C19.6672 24.0604 19.5187 23.89 19.3701 23.7054H19.3749ZM22.4699 26.4792C22.1202 26.1526 21.277 25.6082 20.3954 24.7941C20.2038 24.9266 20.0073 25.0592 19.8109 25.1917C20.381 25.9822 21.1524 26.9525 21.7561 27.2365C22.6664 27.6625 22.9155 26.8957 22.4699 26.4792ZM27.0789 14.6503C22.0531 8.39747 15.911 4.96573 13.2664 7.0437C11.211 8.6578 12.0542 13.377 14.8905 18.3282C15.039 18.2809 15.1828 18.2288 15.3265 18.1815C12.4663 13.3534 11.6853 8.86608 13.6209 7.34191C16.0595 5.4296 21.9429 8.87554 26.825 14.9438C27.8359 16.1982 28.7222 17.462 29.4744 18.6927C32.3538 23.4025 33.2402 27.6625 31.2471 29.3997C30.6386 29.9299 28.7797 30.1429 26.3411 29.0589C26.3075 29.1015 26.3602 29.2151 26.4034 29.2435C28.5066 30.0813 30.5236 30.3985 31.5393 29.5985C33.9828 27.6767 32.1047 20.8985 27.0789 14.6503Z" fill="white"/>
<path d="M5.51929 15.3936H8.73886L11.441 19.9234V16.3876C11.441 15.99 10.9284 15.4693 10.7511 15.3936H12.9789C12.8448 15.4314 12.404 15.9568 12.404 16.3876V21.5849C12.404 21.902 12.8735 22.3422 13.0939 22.5174H9.98932L7.24406 17.9638V21.5423C7.24406 21.8973 7.59859 22.2381 7.96271 22.5268H5.59115C5.92652 22.3848 6.25231 21.9399 6.28106 21.5849C6.30981 21.2299 6.28106 16.6526 6.28106 16.4491C6.28106 16.0184 5.85466 15.6634 5.51929 15.3936Z" fill="white"/>
<path d="M34.9697 22.5125H39.2529C39.0133 22.4557 38.7498 22.1764 38.6061 21.8072C38.4624 21.438 36.1914 15.3887 36.1914 15.3887H34.5625C34.1025 15.7153 33.6043 16.0656 33.0773 16.43C33.0773 16.4442 33.0773 16.4584 33.0725 16.4679C33.0006 16.8939 31.7262 21.4522 31.6495 21.6794C31.5441 21.9918 30.9884 22.3421 30.7632 22.522H33.0725C32.8425 22.2664 32.6556 22.0202 32.6988 21.7315C32.7419 21.4475 32.8712 20.8795 32.8712 20.8795H35.2572C35.3626 21.1635 35.444 21.4191 35.4871 21.6605C35.535 21.9539 35.2332 22.2806 34.9697 22.503V22.5125ZM33.0868 19.9801L33.8917 17.3814L34.9553 19.9801H33.0868ZM32.7227 15.6537C32.8425 15.5685 32.9623 15.4786 33.0773 15.3934H32.4496C32.5119 15.4502 32.6173 15.5401 32.7179 15.6537H32.7227Z" fill="white"/>
<path d="M16.3422 21.7409C16.3853 21.4569 16.5147 20.8889 16.5147 20.8889H18.9006C19.006 21.1729 19.0875 21.4285 19.1306 21.6699C19.1785 21.9634 18.8766 22.29 18.6131 22.5125H22.3837C22.4603 22.4604 22.5418 22.4084 22.6184 22.3563C22.4699 22.2285 22.3358 22.0391 22.2495 21.8072C22.1058 21.438 19.8349 15.3887 19.8349 15.3887H16.0978C16.2799 15.5543 16.7973 15.9946 16.7159 16.4679C16.644 16.8939 15.3696 21.4522 15.293 21.6794C15.1876 21.9918 14.6318 22.3421 14.4066 22.522H16.7111C16.4811 22.2664 16.2943 22.0155 16.3374 21.7315L16.3422 21.7409ZM17.5352 17.3814L18.5988 19.9801H16.7303L17.5352 17.3814Z" fill="white"/>
<path d="M29.369 18.9292C28.6647 19.3931 27.9221 19.8759 27.1412 20.3777C27.4909 20.5433 27.7688 20.7563 27.7976 21.0309C27.8455 21.5421 26.8058 21.7882 25.8668 21.6841C25.6799 21.6651 25.4931 21.6131 25.3158 21.5468C25.1194 21.6699 24.9229 21.7977 24.7217 21.9255C24.5205 22.0533 24.2714 22.2142 23.9887 22.3988V23.1325C24.1755 22.7728 24.5828 22.4462 24.899 22.4272C25.0331 22.4225 25.5122 22.8532 27.4622 22.7444C28.4108 22.6923 30.2458 21.6935 30.217 20.5433C30.1979 19.8617 29.8385 19.3316 29.3642 18.9245L29.369 18.9292ZM23.9887 20.7043V21.4521C24.1612 21.3385 24.3336 21.2249 24.5013 21.1161C24.2378 20.9362 24.051 20.7658 23.9887 20.7043ZM28.6983 18.4606C28.5162 18.3565 28.3342 18.2618 28.1569 18.1766C27.237 17.7506 26.274 17.6749 26.0728 17.0974C25.9291 16.6903 26.3315 16.3164 27.3089 16.3306C28.2862 16.3448 29.1917 16.9175 29.4361 17.1258V15.2939C29.3642 15.3649 29.048 15.72 28.7606 15.6632C28.2096 15.5496 27.2658 15.4028 26.1878 15.4075C24.9517 15.4123 23.8881 16.359 23.8498 17.5518C23.8018 19.2227 25.1529 19.6771 25.9147 19.9374C25.9913 19.9658 26.0824 19.9942 26.1782 20.0226C26.9112 19.554 27.4861 19.1896 27.8263 19.0002C28.0515 18.8724 28.3533 18.6831 28.6983 18.4606Z" fill="white"/>
</g>
<defs>
<clipPath id="clip0_2860_47370">
<rect width="47" height="38" fill="white"/>
</clipPath>
</defs>
</svg>
