   <svg xmlns="http://www.w3.org/2000/svg" width="47" height="38" viewBox="0 0 47 38" fill="none">
            <g clipPath="url(#clip0_33_9521)">
                <path d="M21.8472 38C32.4683 38 41.0784 29.4934 41.0784 19C41.0784 8.50659 32.4683 0 21.8472 0C11.2261 0 2.61597 8.50659 2.61597 19C2.61597 29.4934 11.2261 38 21.8472 38Z" fill="#0B3D91" />
                <path d="M20.7117 3.86351C20.8308 3.86351 20.9273 3.76814 20.9273 3.6505C20.9273 3.53287 20.8308 3.4375 20.7117 3.4375C20.5926 3.4375 20.4961 3.53287 20.4961 3.6505C20.4961 3.76814 20.5926 3.86351 20.7117 3.86351Z" fill="white" />
                <path d="M22.9251 4.14867C23.0441 4.14867 23.1407 4.0533 23.1407 3.93566C23.1407 3.81802 23.0441 3.72266 22.9251 3.72266C22.806 3.72266 22.7095 3.81802 22.7095 3.93566C22.7095 4.0533 22.806 4.14867 22.9251 4.14867Z" fill="white" />
                <path d="M25.8284 8.01195C25.9475 8.01195 26.044 7.91658 26.044 7.79894C26.044 7.6813 25.9475 7.58594 25.8284 7.58594C25.7093 7.58594 25.6128 7.6813 25.6128 7.79894C25.6128 7.91658 25.7093 8.01195 25.8284 8.01195Z" fill="white" />
                <path d="M9.9031 27.8909C10.0222 27.8909 10.1187 27.7955 10.1187 27.6778C10.1187 27.5602 10.0222 27.4648 9.9031 27.4648C9.78403 27.4648 9.6875 27.5602 9.6875 27.6778C9.6875 27.7955 9.78403 27.8909 9.9031 27.8909Z" fill="white" />
                <path d="M10.4636 29.594C10.5827 29.594 10.6792 29.4986 10.6792 29.381C10.6792 29.2633 10.5827 29.168 10.4636 29.168C10.3446 29.168 10.248 29.2633 10.248 29.381C10.248 29.4986 10.3446 29.594 10.4636 29.594Z" fill="white" />
                <path d="M7.79034 28.0953C7.8803 28.0953 7.95323 28.0233 7.95323 27.9344C7.95323 27.8455 7.8803 27.7734 7.79034 27.7734C7.70037 27.7734 7.62744 27.8455 7.62744 27.9344C7.62744 28.0233 7.70037 28.0953 7.79034 28.0953Z" fill="white" />
                <path d="M16.5579 31.4391C16.6479 31.4391 16.7208 31.367 16.7208 31.2781C16.7208 31.1892 16.6479 31.1172 16.5579 31.1172C16.468 31.1172 16.395 31.1892 16.395 31.2781C16.395 31.367 16.468 31.4391 16.5579 31.4391Z" fill="white" />
                <path d="M30.3082 28.6187C30.3981 28.6187 30.4711 28.5467 30.4711 28.4578C30.4711 28.3689 30.3981 28.2969 30.3082 28.2969C30.2182 28.2969 30.1453 28.3689 30.1453 28.4578C30.1453 28.5467 30.2182 28.6187 30.3082 28.6187Z" fill="white" />
                <path d="M34.3038 24.3297C34.3937 24.3297 34.4667 24.2576 34.4667 24.1687C34.4667 24.0799 34.3937 24.0078 34.3038 24.0078C34.2138 24.0078 34.1409 24.0799 34.1409 24.1687C34.1409 24.2576 34.2138 24.3297 34.3038 24.3297Z" fill="white" />
                <path d="M14.7181 9.20469C14.808 9.20469 14.881 9.13263 14.881 9.04375C14.881 8.95487 14.808 8.88281 14.7181 8.88281C14.6281 8.88281 14.5552 8.95487 14.5552 9.04375C14.5552 9.13263 14.6281 9.20469 14.7181 9.20469Z" fill="white" />
                <path d="M19.1163 6.01328C19.2062 6.01328 19.2792 5.94123 19.2792 5.85234C19.2792 5.76346 19.2062 5.69141 19.1163 5.69141C19.0263 5.69141 18.9534 5.76346 18.9534 5.85234C18.9534 5.94123 19.0263 6.01328 19.1163 6.01328Z" fill="white" />
                <path d="M18.637 5.70078C18.727 5.70078 18.7999 5.62873 18.7999 5.53984C18.7999 5.45096 18.727 5.37891 18.637 5.37891C18.5471 5.37891 18.4741 5.45096 18.4741 5.53984C18.4741 5.62873 18.5471 5.70078 18.637 5.70078Z" fill="white" />
                <path d="M18.2059 5.38828C18.2958 5.38828 18.3688 5.31623 18.3688 5.22734C18.3688 5.13846 18.2958 5.06641 18.2059 5.06641C18.1159 5.06641 18.043 5.13846 18.043 5.22734C18.043 5.31623 18.1159 5.38828 18.2059 5.38828Z" fill="white" />
                <path d="M15.408 10.025C15.498 10.025 15.5709 9.95294 15.5709 9.86406C15.5709 9.77518 15.498 9.70312 15.408 9.70312C15.318 9.70312 15.2451 9.77518 15.2451 9.86406C15.2451 9.95294 15.318 10.025 15.408 10.025Z" fill="white" />
                <path d="M21.8853 1.72422C21.9753 1.72422 22.0482 1.65216 22.0482 1.56328C22.0482 1.4744 21.9753 1.40234 21.8853 1.40234C21.7953 1.40234 21.7224 1.4744 21.7224 1.56328C21.7224 1.65216 21.7953 1.72422 21.8853 1.72422Z" fill="white" />
                <path d="M22.949 6.32578C23.039 6.32578 23.1119 6.25373 23.1119 6.16484C23.1119 6.07596 23.039 6.00391 22.949 6.00391C22.8591 6.00391 22.7861 6.07596 22.7861 6.16484C22.7861 6.25373 22.8591 6.32578 22.949 6.32578Z" fill="white" />
                <path d="M21.2723 5.42734C21.3622 5.42734 21.4352 5.35529 21.4352 5.26641C21.4352 5.17752 21.3622 5.10547 21.2723 5.10547C21.1823 5.10547 21.1094 5.17752 21.1094 5.26641C21.1094 5.35529 21.1823 5.42734 21.2723 5.42734Z" fill="white" />
                <path d="M18.3975 6.64609C18.4875 6.64609 18.5604 6.57404 18.5604 6.48516C18.5604 6.39627 18.4875 6.32422 18.3975 6.32422C18.3075 6.32422 18.2346 6.39627 18.2346 6.48516C18.2346 6.57404 18.3075 6.64609 18.3975 6.64609Z" fill="white" />
                <path d="M31.0745 32.8336C31.1645 32.8336 31.2374 32.7615 31.2374 32.6727C31.2374 32.5838 31.1645 32.5117 31.0745 32.5117C30.9846 32.5117 30.9116 32.5838 30.9116 32.6727C30.9116 32.7615 30.9846 32.8336 31.0745 32.8336Z" fill="white" />
                <path d="M9.62994 28.9195C9.7199 28.9195 9.79283 28.8475 9.79283 28.7586C9.79283 28.6697 9.7199 28.5977 9.62994 28.5977C9.53997 28.5977 9.46704 28.6697 9.46704 28.7586C9.46704 28.8475 9.53997 28.9195 9.62994 28.9195Z" fill="white" />
                <path d="M20.8697 30.9781C20.9596 30.9781 21.0326 30.9061 21.0326 30.8172C21.0326 30.7283 20.9596 30.6562 20.8697 30.6562C20.7797 30.6562 20.7068 30.7283 20.7068 30.8172C20.7068 30.9061 20.7797 30.9781 20.8697 30.9781Z" fill="white" />
                <path d="M12.9742 28.7906C13.0641 28.7906 13.1371 28.7186 13.1371 28.6297C13.1371 28.5408 13.0641 28.4688 12.9742 28.4688C12.8842 28.4688 12.8113 28.5408 12.8113 28.6297C12.8113 28.7186 12.8842 28.7906 12.9742 28.7906Z" fill="white" />
                <path d="M14.3731 31.0445C14.4631 31.0445 14.536 30.9725 14.536 30.8836C14.536 30.7947 14.4631 30.7227 14.3731 30.7227C14.2831 30.7227 14.2102 30.7947 14.2102 30.8836C14.2102 30.9725 14.2831 31.0445 14.3731 31.0445Z" fill="white" />
                <path d="M24.6641 29.6227C24.7541 29.6227 24.827 29.5506 24.827 29.4617C24.827 29.3728 24.7541 29.3008 24.6641 29.3008C24.5742 29.3008 24.5012 29.3728 24.5012 29.4617C24.5012 29.5506 24.5742 29.6227 24.6641 29.6227Z" fill="white" />
                <path d="M30.3367 26.4625C30.4267 26.4625 30.4996 26.3904 30.4996 26.3016C30.4996 26.2127 30.4267 26.1406 30.3367 26.1406C30.2468 26.1406 30.1738 26.2127 30.1738 26.3016C30.1738 26.3904 30.2468 26.4625 30.3367 26.4625Z" fill="white" />
                <path d="M34.6392 28.4C34.7292 28.4 34.8021 28.3279 34.8021 28.2391C34.8021 28.1502 34.7292 28.0781 34.6392 28.0781C34.5493 28.0781 34.4763 28.1502 34.4763 28.2391C34.4763 28.3279 34.5493 28.4 34.6392 28.4Z" fill="white" />
                <path d="M36.1053 29.3297C36.1952 29.3297 36.2682 29.2576 36.2682 29.1687C36.2682 29.0799 36.1952 29.0078 36.1053 29.0078C36.0153 29.0078 35.9424 29.0799 35.9424 29.1687C35.9424 29.2576 36.0153 29.3297 36.1053 29.3297Z" fill="white" />
                <path d="M36.3448 26.8023C36.4347 26.8023 36.5077 26.7303 36.5077 26.6414C36.5077 26.5525 36.4347 26.4805 36.3448 26.4805C36.2548 26.4805 36.1819 26.5525 36.1819 26.6414C36.1819 26.7303 36.2548 26.8023 36.3448 26.8023Z" fill="white" />
                <path d="M14.9576 23.2242C15.0475 23.2242 15.1205 23.1522 15.1205 23.0633C15.1205 22.9744 15.0475 22.9023 14.9576 22.9023C14.8676 22.9023 14.7947 22.9744 14.7947 23.0633C14.7947 23.1522 14.8676 23.2242 14.9576 23.2242Z" fill="white" />
                <path d="M15.0198 26.9377C15.1389 26.9377 15.2354 26.8424 15.2354 26.7247C15.2354 26.6071 15.1389 26.5117 15.0198 26.5117C14.9007 26.5117 14.8042 26.6071 14.8042 26.7247C14.8042 26.8424 14.9007 26.9377 15.0198 26.9377Z" fill="white" />
                <path d="M16.3135 29.6369C16.4326 29.6369 16.5291 29.5416 16.5291 29.4239C16.5291 29.3063 16.4326 29.2109 16.3135 29.2109C16.1944 29.2109 16.0979 29.3063 16.0979 29.4239C16.0979 29.5416 16.1944 29.6369 16.3135 29.6369Z" fill="white" />
                <path d="M31.8076 26.8244C31.9267 26.8244 32.0232 26.7291 32.0232 26.6114C32.0232 26.4938 31.9267 26.3984 31.8076 26.3984C31.6886 26.3984 31.592 26.4938 31.592 26.6114C31.592 26.7291 31.6886 26.8244 31.8076 26.8244Z" fill="white" />
                <path d="M37.3843 26.5119C37.5034 26.5119 37.5999 26.4166 37.5999 26.2989C37.5999 26.1813 37.5034 26.0859 37.3843 26.0859C37.2652 26.0859 37.1687 26.1813 37.1687 26.2989C37.1687 26.4166 37.2652 26.5119 37.3843 26.5119Z" fill="white" />
                <path d="M34.6248 25.3479C34.7438 25.3479 34.8404 25.2525 34.8404 25.1349C34.8404 25.0172 34.7438 24.9219 34.6248 24.9219C34.5057 24.9219 34.4092 25.0172 34.4092 25.1349C34.4092 25.2525 34.5057 25.3479 34.6248 25.3479Z" fill="white" />
                <path d="M31.8076 25.4612C31.9267 25.4612 32.0232 25.3658 32.0232 25.2482C32.0232 25.1305 31.9267 25.0352 31.8076 25.0352C31.6886 25.0352 31.592 25.1305 31.592 25.2482C31.592 25.3658 31.6886 25.4612 31.8076 25.4612Z" fill="white" />
                <path d="M25.9962 3.5187L26.5328 3.46663L25.9962 3.43823C25.9818 3.3341 25.8956 3.25363 25.7902 3.24416L25.7375 2.71875L25.7087 3.24889C25.6129 3.27256 25.5362 3.3483 25.5266 3.4477L24.9805 3.49503L25.5314 3.52343C25.5506 3.61337 25.6273 3.68437 25.7183 3.7033L25.7662 4.24765L25.7949 3.7033C25.8956 3.6891 25.9722 3.61337 25.9914 3.51397L25.9962 3.5187Z" fill="white" />
                <path d="M16.9508 9.41714L17.4874 9.36507L16.9508 9.33667C16.9364 9.23253 16.8501 9.15206 16.7447 9.1426L16.692 8.61719L16.6633 9.14733C16.5675 9.171 16.4908 9.24673 16.4812 9.34614L15.9351 9.39347L16.486 9.42187C16.5052 9.51181 16.5818 9.58281 16.6729 9.60174L16.7208 10.1461L16.7495 9.60174C16.8501 9.58754 16.9268 9.51181 16.946 9.4124L16.9508 9.41714Z" fill="white" />
                <path d="M36.9915 25.0031L37.5281 24.951L36.9915 24.9226C36.9772 24.8185 36.8909 24.7427 36.7855 24.7285L36.7328 24.2031L36.7041 24.7333C36.6082 24.7522 36.5316 24.8327 36.522 24.9321L35.9758 24.9794L36.5268 25.0078C36.546 25.0977 36.6226 25.1687 36.7136 25.1877L36.7616 25.732L36.7903 25.1877C36.8909 25.1735 36.9676 25.0977 36.9867 24.9983L36.9915 25.0031Z" fill="white" />
                <path d="M15.1397 33.1593L15.6763 33.1073L15.1397 33.0789C15.1253 32.9747 15.0391 32.8943 14.9337 32.8848L14.881 32.3594L14.8523 32.8895C14.7564 32.9085 14.6798 32.9889 14.6702 33.0883L14.124 33.1357L14.675 33.1641C14.6942 33.254 14.7708 33.3297 14.8618 33.3439L14.9098 33.8883L14.9385 33.3439C15.0391 33.3297 15.1158 33.254 15.1349 33.1546L15.1397 33.1593Z" fill="white" />
                <path d="M35.2908 29.1828L35.8274 29.1307L35.2908 29.1023C35.2765 28.9982 35.1902 28.9177 35.0848 28.9082L35.0321 28.3828L35.0034 28.913C34.9076 28.9319 34.8309 29.0124 34.8213 29.1118L34.2751 29.1591L34.8261 29.1875C34.8453 29.2774 34.9219 29.3484 35.013 29.3674L35.0609 29.9117L35.0896 29.3674C35.1902 29.3532 35.2669 29.2774 35.2861 29.178L35.2908 29.1828Z" fill="white" />
                <path d="M26.4082 14.4458C24.1707 15.3026 21.9908 16.0694 20.1511 16.6374C16.4093 17.7924 6.18043 20.9259 0 24.8736L0.517431 25.0724C4.28318 22.9708 6.7314 22.3128 9.08379 21.5791C11.6422 20.7839 19.9115 18.8716 23.6581 17.8302C24.9229 17.48 26.4034 17.0161 27.9748 16.4576C27.6107 15.9558 27.2226 15.4493 26.8202 14.9476C26.686 14.7772 26.5471 14.6115 26.4082 14.4458ZM29.139 18.1663C28.5977 18.5261 28.1425 18.8148 27.8263 18.9994C25.9865 20.0502 17.0177 26.0996 14.9768 27.4912C12.9358 28.8828 7.27278 34.1653 5.6055 35.699L5.54801 36.3238C10.9235 31.5525 12.61 30.3738 14.7468 28.7692C17.3914 26.7812 22.8628 23.1033 24.7217 21.9247C26.4992 20.7981 28.1042 19.7615 29.5415 18.8148C29.5175 18.7769 29.4936 18.7391 29.4696 18.6965C29.3594 18.5213 29.2492 18.3462 29.139 18.1663ZM37.5425 9.40001C34.9218 10.9147 30.7967 12.7465 26.7914 14.2991C26.8873 14.4127 26.9831 14.531 27.0789 14.6494C27.5245 15.2079 27.9461 15.7665 28.3437 16.3298C31.4914 15.1843 34.9458 13.6459 37.6862 11.7857C36.3831 13.0069 32.0664 16.1925 29.4313 17.9723C29.5654 18.19 29.6996 18.4077 29.8242 18.6255C33.8103 15.9889 36.4933 14.0482 38.0551 12.7513C40.2111 10.962 45.1267 6.95756 46.9952 1.58984C43.7181 5.70793 39.8422 8.06518 37.5377 9.40001H37.5425Z" fill="#FC3D21" />
                <path d="M19.3749 23.7064C18.9533 23.181 18.364 22.4709 17.9232 21.9266C17.3339 21.1929 16.7878 20.4545 16.2895 19.7161C16.1266 19.754 15.9637 19.7965 15.8008 19.8392C16.4045 20.7669 17.0704 21.6947 17.8035 22.6035C18.3353 23.2662 18.8192 23.801 19.0683 24.1324C19.1162 24.1986 19.2168 24.3501 19.351 24.5442C19.5043 24.44 19.6624 24.3359 19.8205 24.227C19.6672 24.0614 19.5187 23.891 19.3701 23.7064H19.3749ZM22.4699 26.4802C22.1202 26.1536 21.277 25.6092 20.3954 24.7951C20.2038 24.9276 20.0073 25.0601 19.8109 25.1927C20.381 25.9831 21.1524 26.9535 21.7561 27.2375C22.6664 27.6635 22.9155 26.8967 22.4699 26.4802ZM27.0789 14.6513C22.0531 8.39844 15.911 4.9667 13.2664 7.04468C11.211 8.65878 12.0542 13.378 14.8905 18.3292C15.039 18.2819 15.1828 18.2298 15.3265 18.1824C12.4663 13.3543 11.6853 8.86705 13.6209 7.34289C16.0595 5.43058 21.9429 8.87652 26.825 14.9448C27.8359 16.1991 28.7222 17.463 29.4744 18.6937C32.3538 23.4034 33.2402 27.6635 31.2471 29.4007C30.6386 29.9308 28.7797 30.1438 26.3411 29.0599C26.3075 29.1025 26.3602 29.2161 26.4034 29.2445C28.5066 30.0823 30.5236 30.3994 31.5393 29.5995C33.9828 27.6777 32.1047 20.8994 27.0789 14.6513Z" fill="white" />
                <path d="M5.51929 15.3945H8.73886L11.441 19.9244V16.3886C11.441 15.9909 10.9284 15.4703 10.7511 15.3945H12.9789C12.8448 15.4324 12.404 15.9578 12.404 16.3886V21.5859C12.404 21.903 12.8735 22.3432 13.0939 22.5183H9.98932L7.24406 17.9648V21.5433C7.24406 21.8983 7.59859 22.2391 7.96271 22.5278H5.59115C5.92652 22.3858 6.25231 21.9409 6.28106 21.5859C6.30981 21.2309 6.28106 16.6536 6.28106 16.4501C6.28106 16.0193 5.85466 15.6643 5.51929 15.3945Z" fill="white" />
                <path d="M34.9697 22.5144H39.2529C39.0133 22.4576 38.7498 22.1784 38.6061 21.8092C38.4624 21.44 36.1914 15.3906 36.1914 15.3906H34.5625C34.1025 15.7172 33.6043 16.0675 33.0773 16.432C33.0773 16.4462 33.0773 16.4604 33.0725 16.4698C33.0006 16.8959 31.7262 21.4542 31.6495 21.6814C31.5441 21.9938 30.9884 22.344 30.7632 22.5239H33.0725C32.8425 22.2683 32.6556 22.0222 32.6988 21.7334C32.7419 21.4494 32.8712 20.8814 32.8712 20.8814H35.2572C35.3626 21.1654 35.444 21.421 35.4871 21.6624C35.535 21.9559 35.2332 22.2825 34.9697 22.505V22.5144ZM33.0868 19.9821L33.8917 17.3834L34.9553 19.9821H33.0868ZM32.7227 15.6557C32.8425 15.5705 32.9623 15.4806 33.0773 15.3954H32.4496C32.5119 15.4522 32.6173 15.5421 32.7179 15.6557H32.7227Z" fill="white" />
                <path d="M16.3423 21.7429C16.3854 21.4589 16.5148 20.8909 16.5148 20.8909H18.9007C19.0061 21.1749 19.0876 21.4305 19.1307 21.6719C19.1786 21.9654 18.8768 22.292 18.6133 22.5144H22.3838C22.4605 22.4624 22.5419 22.4103 22.6186 22.3582C22.47 22.2304 22.3359 22.0411 22.2497 21.8092C22.1059 21.44 19.835 15.3906 19.835 15.3906H16.098C16.28 15.5563 16.7975 15.9965 16.716 16.4698C16.6441 16.8959 15.3697 21.4542 15.2931 21.6814C15.1877 21.9938 14.6319 22.344 14.4067 22.5239H16.7112C16.4813 22.2683 16.2944 22.0174 16.3375 21.7334L16.3423 21.7429ZM17.5353 17.3834L18.5989 19.9821H16.7304L17.5353 17.3834Z" fill="white" />
                <path d="M29.3689 18.9322C28.6646 19.396 27.922 19.8788 27.1411 20.3806C27.4908 20.5463 27.7687 20.7593 27.7974 21.0338C27.8453 21.545 26.8057 21.7911 25.8667 21.687C25.6798 21.6681 25.493 21.616 25.3157 21.5497C25.1193 21.6728 24.9228 21.8006 24.7216 21.9284C24.5204 22.0562 24.2712 22.2172 23.9886 22.4018V23.1354C24.1754 22.7757 24.5827 22.4491 24.8989 22.4302C25.033 22.4254 25.5121 22.8562 27.4621 22.7473C28.4107 22.6952 30.2457 21.6965 30.2169 20.5463C30.1977 19.8646 29.8384 19.3345 29.3641 18.9274L29.3689 18.9322ZM23.9886 20.7072V21.4551C24.161 21.3415 24.3335 21.2279 24.5012 21.119C24.2377 20.9391 24.0509 20.7687 23.9886 20.7072ZM28.6982 18.4635C28.5161 18.3594 28.334 18.2647 28.1568 18.1795C27.2369 17.7535 26.2739 17.6778 26.0727 17.1003C25.9289 16.6932 26.3314 16.3193 27.3088 16.3335C28.2861 16.3477 29.1916 16.9204 29.436 17.1287V15.2969C29.3641 15.3679 29.0479 15.7229 28.7604 15.6661C28.2095 15.5525 27.2656 15.4057 26.1877 15.4105C24.9516 15.4152 23.888 16.3619 23.8496 17.5547C23.8017 19.2256 25.1528 19.68 25.9146 19.9404C25.9912 19.9688 26.0822 19.9972 26.1781 20.0256C26.9111 19.557 27.486 19.1925 27.8262 19.0032C28.0514 18.8753 28.3532 18.686 28.6982 18.4635Z" fill="white" />
            </g>
            <defs>
                <clipPath id="clip0_33_9521">
                    <rect width="47" height="38" fill="white" />
                </clipPath>
            </defs>
        </svg>